# xmcd
#
# Track frame offsets: 
#        150
#        18273
#        33171
#        44469
#        62442
#        78840
#        93663
#        112986
#        133884
#        154857
#        175605
#        195003
#        211701
#        232074
#        243597
#        258495
#        277293
#        295866
#        309114
#        322587
#
# Disc length: 4498 seconds
#
# Revision: 0
# Processed by: cddbd v1.5.2PL0 Copyright (c) Steve Scherf et al.
# Submitted via: ExactAudioCopy v1.1
#
DISCID=04119014
DTITLE=Super Vintage - Rock N' Roll For Your Soul
DYEAR=2015
DGENRE=Rock
TTITLE0=Sing Me A Rockin' Song
TTITLE1=Heart N' Soul
TTITLE2=Trade
TTITLE3=What's Wrong
TTITLE4=Wise Mama
TTITLE5=Fire In Her Eyes
TTITLE6=Water In A Foreign Land
TTITLE7=Ship Never Sailed
TTITLE8=I'll Never Be The Same
TTITLE9=Free Me
TTITLE10=Don't Lay Down
TTITLE11=You're Alive
TTITLE12=Trouble Love
TTITLE13=Let It Fly
TTITLE14=Until Tomorrow
TTITLE15=Happy N' Lazy
TTITLE16=Salvation
TTITLE17=Get Away
TTITLE18=Ball And Chain
TTITLE19=Born Again
EXTD=
EXTT0=
EXTT1=
EXTT2=
EXTT3=
EXTT4=
EXTT5=
EXTT6=
EXTT7=
EXTT8=
EXTT9=
EXTT10=
EXTT11=
EXTT12=
EXTT13=
EXTT14=
EXTT15=
EXTT16=
EXTT17=
EXTT18=
EXTT19=
PLAYORDER=
